<svg width="40" height="40" viewBox="0 0 40 40" fill="none" xmlns="http://www.w3.org/2000/svg">
<path d="M14.9338 9.35766C14.9338 8.86092 15.1186 8.38196 15.4523 8.01402L18.5186 4.63335C19.3123 3.7582 20.6877 3.7582 21.4814 4.63335L24.5477 8.01402C24.8814 8.38196 25.0662 8.86092 25.0662 9.35766V21.8782C25.0662 22.4167 25.2833 22.9324 25.6685 23.3087L31.4892 28.9962C32.7716 30.2493 31.8844 32.4267 30.0914 32.4267H9.90859C8.1156 32.4267 7.22841 30.2493 8.51084 28.9962L14.3315 23.3087C14.7167 22.9324 14.9338 22.4167 14.9338 21.8782V9.35766Z" fill="#16191F" stroke="white" stroke-width="2"/>
<rect x="17.2349" y="24.9289" width="5.53006" height="11.0712" rx="2.76503" fill="#16191F" stroke="white" stroke-width="2"/>
</svg>
