<svg width="182" height="40" viewBox="0 0 182 40" fill="none" xmlns="http://www.w3.org/2000/svg">
<path d="M181.107 7.78271C180.687 6.68041 180.075 5.66149 179.297 4.77374C178.547 3.91606 177.628 3.22136 176.597 2.7327C175.574 2.24609 174.453 1.99568 173.32 2.00006H158.016L156.347 8.5415H171.696C172.186 8.534 172.671 8.64166 173.112 8.8558C173.538 9.07096 173.921 9.36377 174.24 9.71916C174.571 10.0857 174.829 10.5121 175 10.9753C175.175 11.4529 175.264 11.958 175.262 12.4667V27.1205C175.267 27.6466 175.178 28.1693 175 28.6642C174.833 29.1215 174.574 29.54 174.24 29.8942C173.915 30.2367 173.534 30.52 173.112 30.7314C172.671 30.9455 172.186 31.0532 171.696 31.0457H158.016L156.347 37.6389H173.322C174.455 37.6435 175.575 37.3931 176.599 36.9062C177.63 36.418 178.549 35.7232 179.299 34.8652C180.073 33.9845 180.685 32.9748 181.108 31.8824C181.544 30.7661 181.763 29.5448 181.763 28.2186V11.4203C181.771 10.1777 181.548 8.94441 181.107 7.78271V7.78271Z" fill="white"/>
<path d="M125.906 18.7205C124.978 17.7246 123.854 16.9312 122.603 16.3901C121.305 15.8276 119.903 15.5425 118.487 15.5529H112.038C111.023 15.5529 110.22 15.2475 109.626 14.6367C109.033 14.0259 108.736 13.2845 108.734 12.4126C108.734 11.6461 108.857 11.0355 109.102 10.5808C109.335 10.1391 109.702 9.78202 110.15 9.56053C110.646 9.32103 111.177 9.16197 111.723 9.08934C112.366 8.99922 113.014 8.95554 113.663 8.95863H125.671V2H110.937C109.538 2 108.263 2.27907 107.109 2.83722C105.989 3.37078 104.989 4.12768 104.173 5.06129C103.353 6.01122 102.714 7.10183 102.285 8.27999C101.833 9.48503 101.602 10.7615 101.602 12.0483C101.602 13.8978 101.882 15.4853 102.441 16.8107C103 18.1362 103.786 19.2176 104.8 20.055C105.814 20.8924 107.055 21.503 108.523 21.8869C109.992 22.2707 111.617 22.4626 113.399 22.4626H117.646C118.975 22.4626 120.085 22.8463 120.976 23.6136C121.867 24.3809 122.313 25.4451 122.313 26.8062C122.313 27.5386 122.173 28.1667 121.893 28.6903C121.625 29.1999 121.249 29.6457 120.793 29.9976C120.337 30.3466 119.787 30.6082 119.141 30.7825C118.483 30.9589 117.804 31.047 117.122 31.0445H102.757V37.6377H119.011C120.479 37.6377 121.808 37.3586 122.998 36.8005C124.17 36.2542 125.222 35.4803 126.091 34.5241C126.965 33.5647 127.637 32.4221 128.11 31.0963C128.583 29.7704 128.819 28.3398 128.818 26.8045C128.818 25.1653 128.564 23.6564 128.058 22.2779C127.551 20.8994 126.834 19.7136 125.906 18.7205Z" fill="white"/>
<path d="M92.8269 7.91421C92.3453 6.766 91.6516 5.71846 90.782 4.82622C89.9063 3.94198 88.8639 3.23942 87.715 2.75904C86.504 2.24901 85.2015 1.99082 83.8871 2.00025H67.3604L65.6333 8.22795H82.8393C84.3419 8.22795 85.4428 8.62049 86.1421 9.40561C86.8414 10.1907 87.1911 11.2112 87.1911 12.4669C87.1911 13.7931 86.8414 14.8224 86.1421 15.5549C85.4428 16.2873 84.3419 16.6535 82.8393 16.6535H68.5762V37.6396H74.867V22.8841H83.8871C85.1989 22.8943 86.4998 22.6455 87.715 22.152C88.8711 21.6847 89.916 20.9803 90.782 20.0843C91.6442 19.1863 92.337 18.1404 92.8269 16.9968C93.3361 15.8153 93.595 14.5414 93.5872 13.2552V11.6848C93.5936 10.3894 93.3349 9.10632 92.8269 7.91421V7.91421Z" fill="white"/>
<path d="M0.655098 31.8557C1.07425 32.958 1.68688 33.9769 2.46425 34.8646C3.21488 35.7223 4.13397 36.417 5.16459 36.9057C6.18806 37.3923 7.30815 37.6427 8.44179 37.6383H23.0767L24.8033 31.0969H10.0676C9.57735 31.1044 9.09221 30.9967 8.65135 30.7826C8.22478 30.5676 7.84234 30.2748 7.52384 29.9192C7.1926 29.5526 6.93457 29.1263 6.76362 28.6631C6.588 28.1855 6.49928 27.6804 6.50166 27.1717V12.5179C6.49635 11.9918 6.58506 11.4691 6.76362 10.9741C6.93064 10.5168 7.18931 10.0983 7.52384 9.74417C7.84794 9.40167 8.22951 9.11834 8.65135 8.90696C9.09225 8.69299 9.57739 8.58551 10.0676 8.59321H23.079L24.7487 2.00006H8.44179C7.30812 1.99542 6.18797 2.24584 5.16459 2.73271C4.13374 3.22097 3.21457 3.91573 2.46425 4.77375C1.69064 5.65446 1.07826 6.66412 0.655098 7.75658C0.218897 8.87287 0.000606547 10.0941 0.000226912 11.4203V28.2192C-0.00812053 29.4613 0.213908 30.6942 0.655098 31.8557V31.8557Z" fill="white"/>
<path d="M48.8098 2H41.9935L32.8179 37.6394H33.9904L33.983 37.6667H47.032L48.6834 31.3577H40.6729L41.7315 26.9113L45.1921 12.362H45.5588L48.8622 26.9113L50.0683 32.1966L51.3268 37.6394H57.6187L48.8098 2Z" fill="white"/>
<path d="M143.491 37.6598H136.833L137.717 35.8353C138.71 33.8172 139.471 32.1379 139.999 30.7973C140.527 29.4567 140.961 27.8809 141.303 26.0701C141.644 24.2604 141.815 22.1112 141.815 19.6225C141.815 17.3008 141.66 15.2968 141.349 13.6102C141.039 11.9236 140.651 10.4794 140.185 9.27748C139.72 8.07479 139.052 6.57503 138.183 4.77821C137.904 4.28107 137.454 3.35501 136.833 2H143.492C146.719 7.58447 148.332 13.4577 148.332 19.6196C148.332 23.1026 147.913 26.2476 147.075 29.0546C146.236 31.8617 145.042 34.7301 143.491 37.6598Z" fill="#2590FF"/>
</svg>
