<svg width="16" height="16" viewBox="0 0 16 16" fill="none" xmlns="http://www.w3.org/2000/svg">
<g id="icon/&#233;&#157;&#153;&#233;&#159;&#179;">
<path id="Subtract" fill-rule="evenodd" clip-rule="evenodd" d="M3.57191 4.35426L3.57198 4.35421C3.83517 4.62692 4.11188 4.91385 4.39951 5.21229L4.39943 5.21234C4.1118 4.91389 3.8351 4.62697 3.57191 4.35426ZM3.07527 4.55968H1.4C0.6268 4.55968 0 5.15871 0 5.89768V10.1023C0 10.8413 0.6268 11.4403 1.4 11.4403H3.228L7.27 13.8548C7.429 13.9497 7.6126 14 7.8 14C8.3522 14 8.8 13.5723 8.8 13.0443V10.5093C8.40112 10.094 7.99964 9.67602 7.6 9.26011V12.6994L3.718 10.3808C3.6226 10.3239 3.5124 10.2937 3.4 10.2937H1.4C1.2896 10.2937 1.2 10.208 1.2 10.1025V5.89768C1.2 5.792 1.2896 5.70645 1.4 5.70645H3.4C3.51229 5.70651 3.62239 5.67636 3.718 5.61935L3.95872 5.47557C3.65005 5.15534 3.35448 4.8489 3.07527 4.55968ZM7.6 8.53851C7.99833 8.95296 8.39981 9.37084 8.8 9.78749V9.78737C8.39981 9.37072 7.99833 8.95284 7.6 8.53839V8.53851ZM7.6 6.3742C7.99422 6.78409 8.39576 7.20177 8.8 7.6224V2.95574C8.8 2.77671 8.7474 2.60116 8.648 2.44922C8.3552 2.00174 7.7384 1.86568 7.27 2.14535L4.89419 3.56444C5.15877 3.83871 5.43535 4.12561 5.72154 4.42265L7.6 3.30064V6.3742ZM11.9525 10.9053C11.681 10.6224 11.4049 10.3347 11.1257 10.0439C12.1781 8.59371 11.9986 6.6349 10.5874 5.35806C10.5303 5.30667 10.4843 5.24477 10.4522 5.176C10.42 5.10722 10.4023 5.03294 10.4002 4.95748C10.398 4.88202 10.4114 4.80691 10.4396 4.73652C10.4677 4.66612 10.5101 4.60186 10.5642 4.54748C10.6744 4.4369 10.8251 4.37262 10.9837 4.36849C11.1424 4.36436 11.2964 4.42072 11.4126 4.52542C13.3306 6.26087 13.5106 8.9844 11.9525 10.9053ZM12.4589 13.5997C12.4589 13.5998 12.459 13.5999 12.459 13.6C12.5379 13.6822 12.6159 13.7636 12.6931 13.8441C12.6932 13.8442 12.6933 13.8442 12.6934 13.8443C12.616 13.7636 12.5379 13.6821 12.4589 13.5997ZM14.06 13.1023C13.7974 12.8285 13.5235 12.5428 13.2403 12.2476C15.5198 9.50747 15.3007 5.57052 12.583 3.06045C12.5264 3.00849 12.4811 2.94614 12.4497 2.87703C12.4183 2.80793 12.4014 2.73347 12.4001 2.65799C12.3987 2.5825 12.4129 2.50752 12.4419 2.43742C12.4708 2.36731 12.5139 2.30349 12.5686 2.24968C12.6799 2.14023 12.8312 2.07747 12.9899 2.0749C13.1486 2.07233 13.3019 2.13016 13.417 2.23593C16.6314 5.20481 16.8457 9.90284 14.06 13.1023Z" fill="white"/>
<path id="Vector 4 (Stroke)" fill-rule="evenodd" clip-rule="evenodd" d="M13.9926 15.1995C10.1559 11.196 2.19506 2.90216 1 1.70711L1.70711 1C2.91205 2.20494 10.8845 10.5111 14.7145 14.5076L13.9926 15.1995Z" fill="white"/>
</g>
</svg>
