<svg width="16" height="16" viewBox="0 0 16 16" fill="none" xmlns="http://www.w3.org/2000/svg">
<g id="icon/&#229;&#163;&#176;&#233;&#159;&#179;">
<path id="Vector" d="M3.228 4.55968L7.27 2.14535C7.7384 1.86568 8.3552 2.00174 8.648 2.44922C8.7474 2.60116 8.8 2.77671 8.8 2.95574V13.0443C8.8 13.5723 8.3522 14 7.8 14C7.6126 14 7.429 13.9497 7.27 13.8548L3.228 11.4403H1.4C0.6268 11.4403 0 10.8413 0 10.1023V5.89768C0 5.15871 0.6268 4.55968 1.4 4.55968H3.228ZM3.718 5.61935C3.62239 5.67636 3.51229 5.70651 3.4 5.70645H1.4C1.2896 5.70645 1.2 5.792 1.2 5.89768V10.1025C1.2 10.208 1.2896 10.2937 1.4 10.2937H3.4C3.5124 10.2937 3.6226 10.3239 3.718 10.3808L7.6 12.6994V3.30064L3.718 5.61935V5.61935ZM13.417 13.7639C13.3019 13.8696 13.1486 13.9275 12.9899 13.9249C12.8312 13.9223 12.6799 13.8596 12.5686 13.7501C12.5139 13.6963 12.4708 13.6325 12.4418 13.5624C12.4128 13.4922 12.3986 13.4172 12.4 13.3417C12.4013 13.2662 12.4182 13.1917 12.4496 13.1226C12.481 13.0535 12.5264 12.9911 12.583 12.9392C15.539 10.209 15.539 5.79064 12.583 3.06045C12.5264 3.00849 12.4811 2.94614 12.4497 2.87703C12.4183 2.80793 12.4014 2.73347 12.4001 2.65799C12.3987 2.5825 12.4129 2.50752 12.4419 2.43742C12.4708 2.36731 12.5139 2.30349 12.5686 2.24968C12.6799 2.14023 12.8312 2.07747 12.9899 2.0749C13.1486 2.07233 13.3019 2.13016 13.417 2.23593C16.861 5.4169 16.861 10.5829 13.417 13.7639ZM11.4126 11.4742C11.2964 11.5789 11.1424 11.6352 10.9837 11.6311C10.8251 11.627 10.6744 11.5627 10.5642 11.4521C10.5101 11.3977 10.4677 11.3335 10.4396 11.2631C10.4114 11.1927 10.398 11.1176 10.4002 11.0421C10.4023 10.9667 10.42 10.8924 10.4522 10.8236C10.4843 10.7548 10.5303 10.6929 10.5874 10.6415C12.2042 9.1789 12.2042 6.8209 10.5874 5.35806C10.5303 5.30667 10.4843 5.24477 10.4522 5.176C10.42 5.10722 10.4023 5.03294 10.4002 4.95748C10.398 4.88202 10.4114 4.80691 10.4396 4.73652C10.4677 4.66612 10.5101 4.60186 10.5642 4.54748C10.6744 4.4369 10.8251 4.37262 10.9837 4.36849C11.1424 4.36436 11.2964 4.42072 11.4126 4.52542C13.5292 6.44058 13.5292 9.55922 11.4126 11.4744V11.4742Z" fill="white"/>
</g>
</svg>
