<svg width="16" height="16" viewBox="0 0 16 16" fill="none" xmlns="http://www.w3.org/2000/svg">
<g id="icon/&#230;&#142;&#168;&#231;&#137;&#185;">
<path id="Vector" d="M13.6051 4.85473C13.5391 9.82837 10.3586 13.2351 5.61082 13.449C3.65289 13.5386 2.23444 12.9062 1 12.122C2.44709 12.3529 4.24146 11.7745 5.20114 10.953C3.78269 10.815 2.94288 10.093 2.54992 8.93108C2.9598 9.00194 3.3916 8.98314 3.781 8.90068C2.50102 8.47221 1.587 7.68111 1.53977 6.02343C1.89896 6.18696 2.2734 6.34069 2.77085 6.37099C1.81294 5.82612 1.10461 3.83434 1.91588 2.51725C3.33757 4.07555 5.04771 5.34717 7.85579 5.51919C7.15078 2.50544 11.1445 0.871173 12.8159 2.89671C13.5225 2.76002 14.0976 2.49195 14.6508 2.20018C14.4231 2.90005 13.9846 3.38915 13.4501 3.78042C14.0369 3.7012 14.5563 3.55781 15 3.33857C14.7248 3.91031 14.1229 4.42302 13.6051 4.85473Z" fill="white"/>
</g>
</svg>
